<?xml version="1.0" encoding="UTF-8" standalone="no"?>
<svg width="20px" height="21px" viewBox="0 0 20 21" version="1.1" xmlns="http://www.w3.org/2000/svg" xmlns:xlink="http://www.w3.org/1999/xlink" xmlns:sketch="http://www.bohemiancoding.com/sketch/ns">
    <!-- Generator: Sketch 3.3.2 (12043) - http://www.bohemiancoding.com/sketch -->
    <title>checkocircle</title>
    <desc>Created with Sketch.</desc>
    <defs></defs>
    <g id="Page-1" stroke="none" stroke-width="1" fill="none" fill-rule="evenodd" sketch:type="MSPage">
        <path d="M10,0.767 C4.47682801,0.767 0,5.24462731 0,10.7664851 C0,16.2893727 4.47682801,20.767 10,20.767 C15.523172,20.767 20,16.2893727 20,10.7664851 C20,5.24462731 15.523172,0.767 10,0.767 L10,0.767 Z M10.0484779,18.767 C5.63054408,18.767 2.049,15.1854559 2.049,10.7664779 C2.049,6.34854408 5.63054408,2.767 10.0484779,2.767 C14.4674559,2.767 18.049,6.34854408 18.049,10.7664779 C18.049,15.1854559 14.4674559,18.767 10.0484779,18.767 Z M6.29418619,11.5168182 C5.90193794,11.1363419 5.90193794,10.5186273 6.29418619,10.1372558 C6.70024601,9.74335085 7.33465692,9.74335085 7.72690518,10.1238272 L8.93495615,11.2992753 L12.274591,8.05224545 C12.6659185,7.67176911 13.3012501,7.67176911 13.6925776,8.05314068 C14.0977167,8.44794083 14.0977167,9.06476012 13.7063892,9.44523645 L9.49202234,13.5427428 C9.18448498,13.8417524 8.68542733,13.8417524 8.37788997,13.5427428 L6.29418619,11.5168182 Z" id="checkocircle" fill="#7ED321" sketch:type="MSShapeGroup"></path>
    </g>
</svg>