<?xml version="1.0" encoding="UTF-8" standalone="no"?>
<svg width="20px" height="20px" viewBox="0 0 20 20" version="1.1" xmlns="http://www.w3.org/2000/svg" xmlns:xlink="http://www.w3.org/1999/xlink" xmlns:sketch="http://www.bohemiancoding.com/sketch/ns">
    <!-- Generator: Sketch 3.3.2 (12043) - http://www.bohemiancoding.com/sketch -->
    <title>deleteocircle</title>
    <desc>Created with Sketch.</desc>
    <defs></defs>
    <g id="Page-1" stroke="none" stroke-width="1" fill="none" fill-rule="evenodd" sketch:type="MSPage">
        <path d="M10,0 C4.47682801,0 0,4.47762731 0,9.99948509 C0,15.5223727 4.47682801,20 10,20 C15.523172,20 20,15.5223727 20,9.99948509 C20,4.47762731 15.523172,0 10,0 L10,0 Z M10,18 C5.58235448,18 2,14.4184559 2,9.99947791 C2,5.58154408 5.58235448,2 10,2 C14.4186896,2 18,5.58154408 18,9.99947791 C18,14.4184559 14.4186896,18 10,18 Z M11.5379778,10.0814079 C11.4922365,10.0368086 11.4922365,9.96362004 11.5379778,9.91787717 L13.7015384,7.75423922 C14.0994872,7.35627622 14.0994872,6.71130169 13.7015384,6.31333869 L13.687816,6.29847225 C13.2898673,5.90050925 12.6437722,5.90050925 12.2458235,6.29847225 L10.0822628,8.4621102 C10.0365216,8.50785307 9.96333561,8.50785307 9.91873791,8.4621102 L7.75403375,6.29847225 C7.35722849,5.90050925 6.71113349,5.90050925 6.3131847,6.29847225 L6.29946233,6.31219512 C5.90037002,6.71015812 5.90037002,7.35627622 6.2983188,7.75423922 L8.46302296,9.91787717 C8.50762067,9.96362004 8.50762067,10.0368086 8.46302296,10.0814079 L6.2983188,12.2461895 C5.90151355,12.6430089 5.90037002,13.2879834 6.2983188,13.68709 L6.3131847,13.7008129 C6.71113349,14.0987759 7.35608496,14.0999194 7.75403375,13.7019564 L9.91873791,11.5371749 C9.96333561,11.4925756 10.0365216,11.4925756 10.0822628,11.5371749 L12.2458235,13.7019564 C12.6437722,14.0987759 13.2887237,14.0999194 13.6866725,13.7019564 L13.7015384,13.68709 C14.0994872,13.289127 14.0994872,12.6441525 13.7015384,12.2461895 L11.5379778,10.0814079 Z" id="deleteocircle" fill="#D0011B" sketch:type="MSShapeGroup"></path>
    </g>
</svg>